<?xml version="1.0" encoding="utf-8"?><!DOCTYPE svg PUBLIC "-//W3C//DTD SVG 1.1//EN" "http://www.w3.org/Graphics/SVG/1.1/DTD/svg11.dtd"><svg xmlns="http://www.w3.org/2000/svg" viewBox="0 0 29 29" shape-rendering="crispEdges"><path fill="#ffffff" d="M0 0h29v29H0z"/><path stroke="#16181d" d="M2 2.5h7m1 0h2m1 0h6m1 0h7M2 3.5h1m5 0h1m2 0h2m3 0h1m1 0h1m1 0h1m5 0h1M2 4.5h1m1 0h3m1 0h1m2 0h1m1 0h1m2 0h2m2 0h1m1 0h3m1 0h1M2 5.5h1m1 0h3m1 0h1m1 0h1m1 0h4m1 0h1m2 0h1m1 0h3m1 0h1M2 6.5h1m1 0h3m1 0h1m1 0h1m1 0h1m1 0h1m1 0h3m1 0h1m1 0h3m1 0h1M2 7.5h1m5 0h1m1 0h2m1 0h2m5 0h1m5 0h1M2 8.5h7m1 0h1m1 0h1m1 0h1m1 0h1m1 0h1m1 0h7M10 9.5h1m1 0h1m1 0h1m2 0h1M2 10.5h1m3 0h1m1 0h6m3 0h1m1 0h5m2 0h1M2 11.5h2m1 0h3m4 0h2m1 0h5m2 0h2m1 0h1M6 12.5h1m1 0h1m2 0h1m1 0h2m1 0h4m1 0h4M7 13.5h1m1 0h1m1 0h1m2 0h1m1 0h1m3 0h1m3 0h2M3 14.5h2m2 0h2m1 0h1m2 0h1m3 0h1m1 0h2m2 0h4M2 15.5h1m2 0h3m2 0h3m1 0h4m4 0h1m2 0h1M5 16.5h2m1 0h1m4 0h2m1 0h2m2 0h5M6 17.5h1m2 0h3m1 0h1m4 0h2m1 0h2m1 0h2M2 18.5h5m1 0h2m1 0h2m1 0h1m3 0h7M10 19.5h2m3 0h1m1 0h2m3 0h1M2 20.5h7m1 0h1m1 0h1m3 0h1m1 0h1m1 0h1m1 0h1M2 21.5h1m5 0h1m2 0h2m1 0h1m1 0h1m1 0h1m3 0h5M2 22.5h1m1 0h3m1 0h1m1 0h4m1 0h2m1 0h9M2 23.5h1m1 0h3m1 0h1m2 0h2m1 0h1m1 0h3m1 0h2m2 0h3M2 24.5h1m1 0h3m1 0h1m4 0h8m2 0h1m1 0h1M2 25.5h1m5 0h1m3 0h2m1 0h1m1 0h1m2 0h6M2 26.5h7m1 0h1m3 0h2m1 0h1m6 0h3"/></svg>
